<?xml version="1.0" encoding="UTF-8"?>
<svg xmlns="http://www.w3.org/2000/svg"
     version="1.2"
     baseProfile="tiny-ps"
     viewBox="0 0 1000 1000">
  <title>Kerjiva</title>
  <desc>Kerjiva blue, white, and orange brand mark</desc>

  <rect x="80" y="80" width="840" height="840" rx="190" fill="#1769E8"/>

  <path d="M260 270
           C260 248 278 230 300 230
           H385
           C407 230 425 248 425 270
           V475
           L500 420
           C548 385 600 355 660 330
           C735 298 790 255 835 210
           C850 195 870 207 862 228
           C825 325 758 400 665 452
           L535 525
           L725 735
           C742 754 729 785 703 785
           H620
           C607 785 596 779 588 769
           L448 590
           C425 562 402 545 380 540
           V730
           C380 752 362 770 340 770
           H300
           C278 770 260 752 260 730
           Z"
        fill="#FFFFFF"/>

  <circle cx="520" cy="265" r="78" fill="#FFB300"/>

  <path d="M345 770
           C320 720 318 655 330 600
           C344 535 382 480 438 438
           C495 395 560 365 635 342
           C700 322 765 282 828 220
           C790 305 735 373 652 420
           C584 458 520 488 468 530
           C421 568 395 614 392 667
           C390 706 397 741 410 770
           Z"
        fill="#FF8A00"/>
</svg>
